<svg xmlns="http://www.w3.org/2000/svg" viewBox="0 0 600 200" width="600" height="200">
	<style>
		tspan { white-space:pre }
		.shp0 { fill: #ffffff } 
		.shp1 { fill: #e7aa0f } 
		.shp2 { opacity: 0.008;fill: #fe3b3b } 
		.shp3 { fill: #fe3b3b } 
	</style>
	<g id="Layer">
		<path id="Layer" class="shp0" d="M178.4 93.4L161 93.4L161 75.3L178.5 75.3L178.5 93.4L178.4 93.4ZM178.2 175.3L161.2 175.3L161.2 105.5L178.2 105.5L178.2 175.3Z" />
		<path id="Layer" class="shp0" d="M245.1 112.9L236.1 127.6C234.5 125.8 232.7 124.1 230.7 122.7C228.7 121.3 226.7 120.6 224.7 120.6C223.6 120.6 222.4 120.9 221.2 121.4C219.9 121.9 218.7 122.8 217.6 124C216.5 125.2 215.5 126.8 214.7 128.8C213.9 130.8 213.5 133.2 213.5 136.1L213.5 175.4L196.7 175.4L196.7 105.7L213.5 105.7L213.5 113.2C215.5 110.2 217.7 107.9 220.2 106.3C222.6 104.7 225.4 103.9 228.4 103.9C231.3 103.9 234.2 104.7 237.1 106.4C240 107.9 242.6 110.1 245.1 112.9L245.1 112.9Z" />
		<path id="Layer" class="shp0" d="M309.5 95.6L283.8 95.6L283.8 175.3L265.5 175.3L265.5 95.6L239.8 95.6L239.8 79L309.5 79L309.5 95.6Z" />
		<path id="Layer" class="shp0" d="M356.8 112.9L347.8 127.6C346.2 125.8 344.4 124.1 342.4 122.7C340.4 121.3 338.4 120.6 336.4 120.6C335.3 120.6 334.1 120.9 332.9 121.4C331.6 121.9 330.4 122.8 329.3 124C328.2 125.2 327.2 126.8 326.4 128.8C325.6 130.8 325.2 133.2 325.2 136.1L325.2 175.4L308.4 175.4L308.4 105.7L325.2 105.7L325.2 113.2C327.2 110.2 329.4 107.9 331.9 106.3C334.3 104.7 337.1 103.9 340.1 103.9C343 103.9 345.9 104.7 348.8 106.4C351.6 107.9 354.3 110.1 356.8 112.9L356.8 112.9Z" />
		<path id="Layer" fill-rule="evenodd" class="shp0" d="M403.1 175.3L403.1 171.6C400.2 173.7 397 175.1 393.7 175.9C390.4 176.7 387 177.1 383.5 177.1C380.2 177.1 377.3 176.6 374.7 175.6C372.1 174.6 369.8 173.1 367.8 171.3C365.9 169.4 364.4 167.2 363.3 164.6C362.3 162 361.7 159.2 361.7 156C361.7 152.1 362.5 148.6 364.2 145.7C365.9 142.8 368.1 140.3 371 138.3C373.9 136.3 377.2 134.9 381.1 133.9C384.9 132.9 389.1 132.5 393.5 132.5L403.2 132.5C403.2 128.4 401.9 125.1 399.4 122.7C396.8 120.3 393.2 119.1 388.3 119.1C386 119.1 383.6 119.5 381.1 120.4C378.6 121.3 376.1 122.9 373.7 125.2L363.8 114.8C367.4 111.3 371.5 108.5 376.2 106.6C380.9 104.7 385.7 103.7 390.7 103.7C395.4 103.7 399.5 104.5 403.1 106C406.7 107.5 409.7 109.5 411.9 111.9C414.8 115 416.9 118.4 418.1 122.1C419.3 125.9 419.9 130.7 419.9 136.6L419.9 175.3L403.1 175.3ZM403.1 145L395.4 145C393.1 145 390.9 145.2 388.8 145.5C386.7 145.8 385 146.4 383.4 147.1C381.9 147.9 380.7 148.8 379.8 150.1C378.9 151.3 378.5 152.8 378.5 154.4C378.5 156.8 379.4 158.8 381.2 160.3C383 161.8 385.4 162.6 388.2 162.6C390.7 162.6 393.1 162.2 395.6 161.4C398.2 160.6 400.6 159.5 403.1 157.9L403.1 145Z" />
		<path id="Layer" fill-rule="evenodd" class="shp0" d="M482 175.3L482 171.7C479.8 173.5 477.5 174.9 474.9 175.7C472.3 176.5 469.6 177 466.8 177C462.1 177 457.7 176 453.8 174C449.8 172 446.4 169.4 443.6 166C440.7 162.7 438.5 158.8 436.9 154.4C435.3 150 434.5 145.3 434.5 140.4C434.5 135.2 435.4 130.3 437.2 125.9C439 121.4 441.4 117.6 444.5 114.3C447.5 111 451 108.4 454.9 106.5C458.8 104.6 462.8 103.7 466.9 103.7C469.8 103.7 472.6 104.1 475.3 104.9C478 105.7 480.3 106.8 482.3 108.3L482.3 75.3L499.3 75.3L499.3 175.3L482 175.3ZM482.2 156.6L482.2 123.1C481.4 122.5 480.5 122 479.5 121.5C478.5 121 477.4 120.5 476.3 120.2C475.2 119.8 474.1 119.6 473 119.4C471.9 119.2 470.9 119.1 470.1 119.1C467.3 119.1 464.7 119.6 462.4 120.6C460.1 121.6 458.1 123.1 456.4 124.9C454.7 126.8 453.4 129.1 452.4 131.7C451.5 134.4 451 137.3 451 140.5C451 143.6 451.5 146.5 452.4 149.1C453.3 151.7 454.6 154 456.3 155.9C457.9 157.8 459.9 159.3 462.2 160.3C464.5 161.3 467 161.9 469.7 161.9C474.3 161.8 478.4 160.1 482.2 156.6Z" />
		<path id="Layer" fill-rule="evenodd" class="shp0" d="M582.3 143.8C582.2 145 582 146.3 581.9 147.5L528.1 147.5C528.7 149.5 529.6 151.4 530.7 153.2C531.8 155 533.2 156.6 534.8 157.9C536.4 159.2 538.3 160.3 540.3 161C542.4 161.8 544.6 162.1 547.1 162.1C550.1 162.1 553.2 161.6 556.2 160.5C559.2 159.4 561.7 157.9 563.8 156.1L574.4 167.1C569.7 170.7 565.2 173.3 560.7 174.8C556.2 176.3 551.5 177 546.6 177C541.6 177 536.8 176 532.5 174.1C528.1 172.2 524.3 169.6 521.1 166.3C517.9 163 515.3 159.1 513.5 154.7C511.6 150.2 510.7 145.5 510.7 140.4C510.7 135.3 511.6 130.6 513.5 126.1C515.4 121.6 517.9 117.8 521.2 114.5C524.5 111.2 528.3 108.6 532.6 106.7C536.9 104.8 541.6 103.8 546.6 103.8C551.3 103.8 555.9 104.7 560.2 106.5C564.5 108.3 568.4 110.8 571.7 114C575 117.2 577.7 121.1 579.6 125.5C581.6 130 582.5 135 582.5 140.3C582.5 141.4 582.4 142.6 582.3 143.8ZM565 133.6C563.7 129.2 561.3 125.6 558 122.9C554.6 120.2 550.8 118.9 546.5 118.9C542.3 118.9 538.5 120.2 535.2 122.9C531.9 125.6 529.5 129.2 528.2 133.6L565 133.6Z" />
	</g>
	<path id="Layer" class="shp0" d="M93.2 175.2L21.5 34.6L56.5 34.6L70.3 61.3L65.8 70.4L51.4 43.1L35.2 43.1L93.3 156.8L152.6 43.9L136.3 43.6L122.6 69.9L117.9 61.2L131 35.5L166.6 35.5L93.2 175.2Z" />
	<path id="Layer" class="shp1" d="M94 32.6L69.7 79.3L94 126.7L118.1 79.6L94 32.6Z" />
	<g id="Layer">
		<path id="Layer" class="shp2" d="M82.24 102.88C75.84 90.36 70.61 79.74 70.61 79.26C70.61 78.78 75.86 68.29 82.29 55.93L93.96 33.46L117.68 79.57L107.99 98.56C102.67 109.01 97.31 119.38 96.09 121.6L93.88 125.64L82.24 102.88Z" />
		<path id="Layer" class="shp3" d="M82.24 102.88C75.84 90.36 70.61 79.74 70.61 79.26C70.61 78.78 75.86 68.29 82.29 55.93L93.96 33.46L117.68 79.57L107.99 98.56C102.67 109.01 97.31 119.38 96.09 121.6L93.88 125.64L82.24 102.88Z" />
		<path id="Layer" class="shp3" d="M82.6 102.52C76.4 90.16 71.33 79.62 71.34 79.1C71.36 77.69 93.07 35.61 93.85 35.47C94.21 35.41 99.62 45.3 105.88 57.45L117.26 79.55L109.74 94.25C105.6 102.34 100.34 112.57 98.04 116.97L93.87 124.99L82.6 102.52Z" />
		<path id="Layer" class="shp3" d="M82.58 102.62C76.38 90.34 71.31 79.8 71.33 79.21C71.36 77.68 93.15 35.34 93.89 35.35C94.23 35.35 99.65 45.3 105.94 57.46L117.38 79.56L108.55 96.77C103.69 106.23 98.4 116.45 96.79 119.47L93.87 124.95L82.58 102.62Z" />
		<path id="Layer" class="shp3" d="M82.56 102.65C76.34 90.35 71.28 79.8 71.31 79.21C71.37 77.63 93.14 35.33 93.89 35.34C94.23 35.35 99.68 45.29 105.98 57.44L117.45 79.53L108.04 97.83C102.86 107.89 97.55 118.13 96.24 120.57L93.85 125.02L82.56 102.65Z" />
		<path id="Layer" class="shp3" d="M82.58 102.87C76.39 90.63 71.33 80.06 71.34 79.38C71.36 77.61 93.2 35.09 93.98 35.32C94.33 35.43 99.77 45.42 106.06 57.53L117.49 79.54L109.28 95.56C104.77 104.37 99.44 114.62 97.45 118.35L93.82 125.12L82.58 102.87Z" />
		<path id="Layer" class="shp3" d="M82.55 102.93C76.38 90.67 71.33 80.08 71.34 79.39C71.36 77.69 93.14 35.1 93.92 35.23C94.26 35.29 99.71 45.28 106.02 57.43L117.5 79.51L108.57 96.97C103.66 106.58 98.32 116.86 96.71 119.82L93.77 125.22L82.55 102.93Z" />
	</g>
</svg>